<svg id="COS_Logo" data-name="COS Logo" xmlns="http://www.w3.org/2000/svg" viewBox="0 0 1200 323.46"><defs><style>.cls-1{fill:#e8282b;}.cls-2{fill:#1b1b1b;}.cls-3{fill:#828282;}</style></defs><title>COS_Educational_Consulting_Inc_Logo_Jap</title><g id="COS_Logo_Japanese_" data-name="COS Logo (Japanese)"><path class="cls-1" d="M393.79,161.7l21.39-24.26a32.85,32.85,0,0,0,13,15.7,36.68,36.68,0,0,0,20.16,5.73q13.53,0,21.39-6.41t7.87-17.24q0-12.81-26.18-25.49c-5.66-2.72-10.13-4.92-13.4-6.66Q414.43,90.77,405.34,79t-9.09-28q0-22.29,17.63-36.64T459.68,0Q476,0,487.9,5.73t21,17.91l-22.75,21.8a27.69,27.69,0,0,0-10.75-11.75q-6.71-3.88-16.17-3.88-11.43,0-18.44,5.72a18.28,18.28,0,0,0-7,14.84q0,14.29,27.79,26.11,5.54,2.34,8.48,3.69,22.88,10.47,33.87,23.65a45.6,45.6,0,0,1,11,30.05q0,25.37-17.28,40.45T451.2,189.41q-20.65,0-35.41-7.14T393.79,161.7Z"/><path class="cls-1" d="M372.88,94.82a94.09,94.09,0,0,1-7.18,36.58A89.79,89.79,0,0,1,345,161.7a99.7,99.7,0,0,1-31.6,20.57,96.06,96.06,0,0,1-68.66,1.54,99.71,99.71,0,0,1-28.95-16.08,91.65,91.65,0,0,1-35.05-72.91,93.61,93.61,0,0,1,7.14-36.51A90.18,90.18,0,0,1,208.76,28,97.19,97.19,0,0,1,313.57,7.51,98.6,98.6,0,0,1,345,28a91.09,91.09,0,0,1,20.77,30.42A94,94,0,0,1,372.88,94.82ZM277,155.05q24.47,0,40.39-17.18T333.3,94.82q0-25.6-16.11-43.1T277,34.24q-24.47,0-40.58,17.42t-16.1,43.16q0,26.13,15.86,43.17T277,155.05Z"/><path class="cls-1" d="M152.82,51.23a81,81,0,0,0-24-15.33A71,71,0,0,0,102.54,31Q73.77,31,56.68,48.27T39.59,94.58q0,28.46,15.86,45.14T98.72,156.4a76.81,76.81,0,0,0,53.85-20.94L152.32,175a101,101,0,0,1-25.75,10.83,109.66,109.66,0,0,1-28.34,3.58q-43,0-70.63-26.78T0,94.58Q0,53.45,27.66,26.73T99,0a128.17,128.17,0,0,1,28.27,3.08,125.27,125.27,0,0,1,26.94,9.48Z"/><path class="cls-2" d="M607.28,30.4H573.82V43.83h30.71v11H573.82V71.06h35V82.43H560.91V19.21h46.37Z"/><path class="cls-2" d="M644.41,36.43a14.74,14.74,0,0,1,5.36,5.17V19.29h12.4V82.43H650.28V76a17.18,17.18,0,0,1-6,6A16.7,16.7,0,0,1,636,83.89a17.37,17.37,0,0,1-13.79-6.63q-5.6-6.63-5.6-17,0-12,5.51-18.84a18,18,0,0,1,14.74-6.86A15,15,0,0,1,644.41,36.43Zm3,33.3a17,17,0,0,0,2.7-10q0-8.58-4.33-12.27a9.35,9.35,0,0,0-6.18-2.23c-3.57,0-6.2,1.35-7.87,4.06a18.78,18.78,0,0,0-2.51,10.05q0,6.48,2.55,10.36a8.66,8.66,0,0,0,7.75,3.89A9,9,0,0,0,647.41,69.73Z"/><path class="cls-2" d="M687.28,35.68V63.86a14.88,14.88,0,0,0,.94,6c1.11,2.38,3.29,3.56,6.53,3.56q6.24,0,8.54-5.06a18.33,18.33,0,0,0,1.19-7.25V35.68h12.4V82.43H705v-6.6c-.11.14-.4.57-.86,1.28A8.19,8.19,0,0,1,702.52,79,16.94,16.94,0,0,1,697,82.52a18.8,18.8,0,0,1-6.27.94q-10.35,0-13.94-7.46-2-4.12-2-12.14V35.68Z"/><path class="cls-2" d="M758.42,52.45a10.78,10.78,0,0,0-1.77-4.72c-1.37-1.89-3.51-2.83-6.4-2.83q-6.19,0-8.47,6.13a25.29,25.29,0,0,0-1.21,8.65,23.19,23.19,0,0,0,1.21,8.25Q744,73.76,750,73.77c2.87,0,4.9-.78,6.11-2.32a11.53,11.53,0,0,0,2.19-6h12.48a20.44,20.44,0,0,1-4,10.55q-5.76,8-17,8t-16.62-6.69q-5.33-6.69-5.32-17.36,0-12,5.88-18.72t16.23-6.69q8.8,0,14.41,3.95t6.63,13.94Z"/><path class="cls-2" d="M800.25,54a19.09,19.09,0,0,0,4.88-1.07q2.64-1.11,2.64-3.47a4.12,4.12,0,0,0-2-4,12.78,12.78,0,0,0-5.94-1.1q-4.39,0-6.22,2.15a8.86,8.86,0,0,0-1.74,4.29H780.06a17.89,17.89,0,0,1,3.44-10.08q4.88-6.18,16.72-6.18a29.81,29.81,0,0,1,13.7,3q6,3,6,11.49V70.55c0,1.49,0,3.29.08,5.4a6.81,6.81,0,0,0,.73,3.26,4.31,4.31,0,0,0,1.8,1.42v1.8H809.23a13.51,13.51,0,0,1-.78-2.66c-.14-.83-.25-1.77-.34-2.83a25.31,25.31,0,0,1-5.87,4.68,17.77,17.77,0,0,1-9,2.27,15.5,15.5,0,0,1-10.55-3.62q-4.17-3.63-4.16-10.28,0-8.62,6.69-12.48,3.68-2.1,10.81-3Zm7.47,5.71a13.77,13.77,0,0,1-2.37,1.18,19.23,19.23,0,0,1-3.28.83l-2.78.52a18.33,18.33,0,0,0-5.62,1.67,5.59,5.59,0,0,0-2.89,5.19q0,3.14,1.77,4.53A6.68,6.68,0,0,0,796.84,75a12.73,12.73,0,0,0,7.38-2.32q3.38-2.31,3.5-8.45Z"/><path class="cls-2" d="M827.72,44.81v-8.7h6.52v-13h12.1v13h7.59v8.7h-7.59V69.52c0,1.92.24,3.11.73,3.58s2,.71,4.46.71l1.18,0,1.22-.07v9.14l-5.79.21q-8.67.3-11.84-3-2.06-2.1-2.06-6.47V44.81Z"/><path class="cls-2" d="M876.65,30.1h-12.4V18.82h12.4Zm-12.4,5.58h12.4V82.43h-12.4Z"/><path class="cls-2" d="M929.26,76.71q-5.91,7.31-18,7.31t-18-7.31a27,27,0,0,1-5.92-17.59,27.23,27.23,0,0,1,5.92-17.53q5.92-7.41,18-7.41t18,7.41a27.23,27.23,0,0,1,5.92,17.53A27,27,0,0,1,929.26,76.71ZM919.48,70q2.88-3.83,2.88-10.84T919.48,48.3a10.86,10.86,0,0,0-16.49,0q-2.9,3.8-2.89,10.82T903,70a10.83,10.83,0,0,0,16.49,0Z"/><path class="cls-2" d="M983.41,38.36Q988,42.16,988,51V82.43H975.48V54a13.1,13.1,0,0,0-1-5.66c-1.19-2.4-3.47-3.6-6.81-3.6q-6.18,0-8.48,5.27A18.36,18.36,0,0,0,958,57.12V82.43H945.79V35.76h11.84v6.82a20.79,20.79,0,0,1,4.45-5.19,15.42,15.42,0,0,1,9.52-2.83Q978.82,34.56,983.41,38.36Z"/><path class="cls-2" d="M1020,54a19.09,19.09,0,0,0,4.89-1.07q2.63-1.11,2.63-3.47a4.1,4.1,0,0,0-2-4,12.74,12.74,0,0,0-5.93-1.1q-4.4,0-6.22,2.15a8.86,8.86,0,0,0-1.74,4.29h-11.8a17.89,17.89,0,0,1,3.45-10.08q4.88-6.18,16.72-6.18a29.84,29.84,0,0,1,13.7,3q6,3,6,11.49V70.55q0,2.24.09,5.4a6.7,6.7,0,0,0,.73,3.26,4.31,4.31,0,0,0,1.8,1.42v1.8H1029a13.44,13.44,0,0,1-.77-2.66c-.14-.83-.26-1.77-.34-2.83a25.52,25.52,0,0,1-5.87,4.68,17.81,17.81,0,0,1-9,2.27,15.49,15.49,0,0,1-10.54-3.62q-4.17-3.63-4.17-10.28,0-8.62,6.7-12.48,3.68-2.1,10.8-3Zm7.48,5.71a13.77,13.77,0,0,1-2.37,1.18,19.48,19.48,0,0,1-3.28.83l-2.79.52a18.25,18.25,0,0,0-5.61,1.67,5.59,5.59,0,0,0-2.89,5.19q0,3.14,1.76,4.53a6.71,6.71,0,0,0,4.29,1.39,12.73,12.73,0,0,0,7.38-2.32q3.38-2.31,3.51-8.45Z"/><path class="cls-2" d="M1064.83,82.43H1052.6V19.21h12.23Z"/><path class="cls-2" d="M566.56,113.66q7.63-7.81,19.44-7.81,15.78,0,23.08,10.47a22.82,22.82,0,0,1,4.33,11.79H600.2a17.9,17.9,0,0,0-3.24-6.86q-3.53-4.12-10.46-4.12a12.88,12.88,0,0,0-11.13,5.81q-4.08,5.82-4.08,16.45t4.3,15.94a13.49,13.49,0,0,0,10.93,5.3q6.79,0,10.36-4.55a19.88,19.88,0,0,0,3.28-7.33h13.12a28.44,28.44,0,0,1-8.68,16.81q-7,6.48-17.88,6.48-13.5,0-21.22-8.75t-7.72-24.11Q557.78,122.62,566.56,113.66Z"/><path class="cls-2" d="M663.88,164.56q-5.91,7.31-18,7.31t-18-7.31a29,29,0,0,1,0-35.12q5.91-7.43,18-7.42t18,7.42a29,29,0,0,1,0,35.12Zm-9.78-6.76Q657,154,657,147t-2.88-10.81a10.86,10.86,0,0,0-16.49,0q-2.9,3.79-2.9,10.81t2.9,10.84a10.83,10.83,0,0,0,16.49,0Z"/><path class="cls-2" d="M718,126.2q4.59,3.81,4.59,12.59v31.49H710.1V141.84a13.07,13.07,0,0,0-1-5.66c-1.2-2.4-3.47-3.61-6.82-3.61q-6.16,0-8.47,5.28a18.15,18.15,0,0,0-1.19,7.12v25.31H680.41V123.61h11.84v6.82a21,21,0,0,1,4.44-5.19,15.39,15.39,0,0,1,9.53-2.83Q713.44,122.41,718,126.2Z"/><path class="cls-2" d="M745.11,155.35a8.12,8.12,0,0,0,1.68,4.63q2.28,2.45,8.45,2.45a13,13,0,0,0,5.75-1.07,3.59,3.59,0,0,0,.42-6.35q-1.73-1.08-12.79-3.69-8-2-11.23-4.93c-2.18-1.95-3.26-4.75-3.26-8.41a14.58,14.58,0,0,1,5.09-11.13q5.1-4.65,14.34-4.66,8.76,0,14.29,3.5t6.34,12.07H762a7.28,7.28,0,0,0-1.34-3.73c-1.34-1.66-3.64-2.49-6.88-2.49-2.67,0-4.56.42-5.7,1.25a3.59,3.59,0,0,0-1.7,2.92,3.18,3.18,0,0,0,1.81,3q1.8,1,12.76,3.39,7.3,1.71,11,5.19a11.8,11.8,0,0,1,3.6,8.79,14.2,14.2,0,0,1-5.18,11.35q-5.17,4.4-16,4.4-11.06,0-16.31-4.66a15.12,15.12,0,0,1-5.27-11.86Z"/><path class="cls-2" d="M798.15,123.52v28.19a14.91,14.91,0,0,0,.94,6q1.67,3.56,6.53,3.56,6.24,0,8.54-5.06a18.55,18.55,0,0,0,1.19-7.25V123.52h12.4v46.76H815.87v-6.61c-.12.15-.4.57-.86,1.29a8.62,8.62,0,0,1-1.62,1.89,16.9,16.9,0,0,1-5.54,3.51,18.79,18.79,0,0,1-6.27.95q-10.35,0-13.94-7.47-2-4.11-2-12.13V123.52Z"/><path class="cls-2" d="M853.26,170.28H841V107.05h12.22Z"/><path class="cls-2" d="M862.13,132.66V124h6.52v-13h12.1v13h7.59v8.71h-7.59v24.71c0,1.91.24,3.11.73,3.58s2,.71,4.46.71l1.18,0c.41,0,.82,0,1.22-.06v9.14l-5.79.21q-8.67.3-11.84-3-2.06-2.1-2.06-6.48V132.66Z"/><path class="cls-2" d="M911.06,118h-12.4V106.67h12.4Zm-12.4,5.57h12.4v46.76h-12.4Z"/><path class="cls-2" d="M961.89,126.2q4.59,3.81,4.6,12.59v31.49H954V141.84a13.07,13.07,0,0,0-1-5.66c-1.19-2.4-3.46-3.61-6.81-3.61q-6.18,0-8.48,5.28A18.33,18.33,0,0,0,936.5,145v25.31H924.28V123.61h11.84v6.82a20.58,20.58,0,0,1,4.44-5.19,15.36,15.36,0,0,1,9.52-2.83Q957.31,122.41,961.89,126.2Z"/><path class="cls-2" d="M1002.91,123.48a14.67,14.67,0,0,1,7.19,6.78v-6.74H1022v44.36q0,9-3,13.64-5.24,7.89-20.07,7.89-9,0-14.63-3.52A13,13,0,0,1,978,175.38h13.29a5.57,5.57,0,0,0,1.68,3.09c1.31,1.12,3.53,1.67,6.65,1.67q6.6,0,8.83-4.41,1.46-2.83,1.46-9.53v-3a14.91,14.91,0,0,1-3.77,4.5,15.19,15.19,0,0,1-9.48,2.79q-9,0-14.39-6.32T976.9,147q0-10.42,5.19-17.52t14.69-7.1A16.22,16.22,0,0,1,1002.91,123.48Zm4.16,33.52q2.94-3.24,2.95-10.31,0-6.66-2.8-10.13a9.16,9.16,0,0,0-7.5-3.47q-6.4,0-8.84,6a21.59,21.59,0,0,0-1.28,7.93,18,18,0,0,0,1.37,7.25,8.9,8.9,0,0,0,8.88,5.92A9.39,9.39,0,0,0,1007.07,157Z"/><path class="cls-2" d="M1067.37,170.28h-13.13V107.05h13.13Z"/><path class="cls-2" d="M1118.63,126.2q4.59,3.81,4.59,12.59v31.49h-12.53V141.84a12.93,12.93,0,0,0-1-5.66c-1.19-2.4-3.46-3.61-6.81-3.61q-6.18,0-8.47,5.28a18.13,18.13,0,0,0-1.2,7.12v25.31H1081V123.61h11.84v6.82a20.58,20.58,0,0,1,4.44-5.19,15.39,15.39,0,0,1,9.53-2.83Q1114,122.41,1118.63,126.2Z"/><path class="cls-2" d="M1164.38,140.3a10.89,10.89,0,0,0-1.76-4.72q-2.07-2.84-6.41-2.83-6.2,0-8.47,6.13a25.27,25.27,0,0,0-1.21,8.64,23.21,23.21,0,0,0,1.21,8.26q2.19,5.83,8.25,5.83,4.3,0,6.11-2.31a11.6,11.6,0,0,0,2.19-6h12.48a20.38,20.38,0,0,1-4,10.55q-5.76,8-17,8t-16.61-6.7q-5.32-6.69-5.33-17.35,0-12,5.88-18.72t16.23-6.69q8.81,0,14.41,3.94t6.63,14Z"/><path class="cls-2" d="M1187,157.45h13v12.83h-13Z"/><path class="cls-3" d="M83.6,251.62a45.38,45.38,0,0,0-.74,5.61c-.43,11.45-1.7,41-6.25,51.82-2.34,5.4-6.36,8.16-13.67,8.16-6,0-12.4-.43-17.59-.85l-1.59-14.2a88,88,0,0,0,14.83,1.48c3.39,0,4.88-1.16,6-3.7,3.08-6.68,4.45-27.87,4.45-39.31H45.24c-3.92,28-14,44.6-32.95,58.06L0,308.73a61,61,0,0,0,13.88-10.38c9.85-9.75,15.15-21.62,17.48-37.72h-14c-3.61,0-9.43,0-14,.42V247.17c4.45.42,10,.74,14,.74H32.53c.1-3,.21-6,.21-9.22a79.3,79.3,0,0,0-.74-9.75H47.57c-.31,2.44-.53,6.89-.63,9.43-.11,3.29-.21,6.47-.43,9.54H66.43a52.29,52.29,0,0,0,8.06-.74Z"/><path class="cls-3" d="M180,254.16c4.88,0,9.33-.42,11.55-.63v14.41c-2.22-.11-7.41-.43-11.65-.43H156.05c-.64,21.3-7.31,38.68-30.2,52.35l-13.14-9.75c20.77-9.43,27.87-24.69,28.72-42.6h-27c-4.66,0-8.9.32-12.19.53V253.42c3.18.32,7.53.74,11.76.74h27.55V242.51a53.09,53.09,0,0,0-1.37-12.4H157a83.36,83.36,0,0,0-.85,12.5v11.55Z"/><path class="cls-3" d="M279.81,244l7.74,4.77a55.81,55.81,0,0,0-3.5,7.63,115.8,115.8,0,0,1-14.62,28.92c3.92,2.55,7.52,4.88,10.17,6.78l-9.54,12.51c-2.54-2.23-6-4.77-9.85-7.53a101.93,101.93,0,0,1-39.1,26.39l-12.29-10.7C227.58,307,239.55,298,248.24,289c-7.1-4.66-14.31-9-19.71-12.08l8.9-10.06c5.62,2.86,12.82,6.88,19.92,11.12,5.19-7.52,9.43-16.21,11-22.57H238c-7.42,9.86-17.27,20-27.87,27.34L198.65,274a98.26,98.26,0,0,0,33.69-35.18,48.5,48.5,0,0,0,4.77-11.13l15.37,4.77c-2.55,3.71-5.2,8.48-6.47,10.81l-.1.1h21.72a34.71,34.71,0,0,0,8.37-.95,121.71,121.71,0,0,0-7-12.08l8.37-3.39a159.57,159.57,0,0,1,8.37,14.52Zm10.07-21.83a140.93,140.93,0,0,1,8.58,14.41L290,240.18a101.8,101.8,0,0,0-8.47-14.63Z"/><path class="cls-3" d="M402.62,229.16s-.1,3.18-.21,4.66c-1,22-2,31.15-4.77,34.43a11,11,0,0,1-7.63,3.93,70.87,70.87,0,0,1-12.18.31,26.49,26.49,0,0,0-3.18-10.91c3.92.32,7.52.42,9.11.42s2.55-.21,3.39-1.27c1.38-1.59,2.23-7.2,2.86-21.3H379.1c-1.59,15.79-6,28.19-21.72,35.82a30.2,30.2,0,0,0-5.51-7.63l-4.56,2.22a39.57,39.57,0,0,0-1.69-4.34c-12.19,3.39-25.11,6.89-35.07,9.64l-3.18-12.08c2.65-.53,5.72-1.16,9-1.9l-2-32.11,9.75,2.65A144.05,144.05,0,0,0,346,223.86l8.06,9.32a173.67,173.67,0,0,1-26.71,7.53l1.06,17.69,11.87-2.86c-1.8-2.86-3.71-5.83-5.51-8.37L345,242.29a102.25,102.25,0,0,1,12.29,19.5c6.79-5.61,9-13.24,10-22.36H357.17V229.16ZM322.1,276.94h71.2v45.78H380.48v-3.08h-46.3v3.5H322.1ZM334.18,287v6.57h16.95V287Zm16.95,22.67v-7H334.18v7ZM380.48,287H363v6.57h17.48Zm0,22.67v-7H363v7Z"/><path class="cls-3" d="M508.27,295.49H467.48v14.09c0,6.57-1.38,9.85-6.57,11.65-5,1.8-11.55,2-20.56,2a56.12,56.12,0,0,0-5.19-12.3c6.78.32,14.62.32,16.74.22s2.76-.43,2.76-1.91V295.49H414V283.83h40.69v-6.89h6a71.38,71.38,0,0,0,8.16-5.82H432.93V260.2h47.58l2.75-.63,7.95,6.14a100.74,100.74,0,0,1-22.78,18.12h39.84Zm-81.06-28.83H415.35V240.92h14.41A88.94,88.94,0,0,0,422.44,230l10.71-4.76c3.7,4.13,7.94,9.74,9.64,13.88l-3.82,1.8h16.64a73.52,73.52,0,0,0-6.68-13.25l11.13-4a61.87,61.87,0,0,1,8.26,15.25l-5.08,2h16a88.79,88.79,0,0,0,9.11-16.11L502,228.94c-2.86,4.14-5.94,8.27-8.9,12h14.09v25.74h-12.4V252h-67.6Z"/><path class="cls-3" d="M604.49,250.56a62.77,62.77,0,0,0,11.65-.74v14.09c-2.33-.21-6-.32-11.65-.32h-7.85v3.5c0,26.28-6.35,42.27-31.89,53.51l-11.34-10.71c20.45-7.09,29.46-16.31,29.46-42.27v-4H557.76V278c0,4.66.32,9,.42,11.13H543.35A85.61,85.61,0,0,0,544,278V263.59h-9c-5.3,0-9.11.21-11.45.43V249.61a71.22,71.22,0,0,0,11.45.95h9V240.07a87,87,0,0,0-.63-9.54h15a66.77,66.77,0,0,0-.63,9.65v10.38h25.11V239.43a69.5,69.5,0,0,0-.64-9.85h15a91.47,91.47,0,0,0-.64,9.85v11.13Z"/><path class="cls-3" d="M656.83,275.88c-4.87,9.43-14.62,23.31-20.44,29.56l-11.45-7.84a110.23,110.23,0,0,0,19.92-27.33Zm23.95-15v49.27c0,6.14-3.5,10-11,10a151.94,151.94,0,0,1-17.27-1L651.22,306A73.26,73.26,0,0,0,663,307.25c2.75,0,3.81-1.06,3.92-3.82.11-3.92.11-37.51.11-42.49v-.1H640.09c-3.17,0-7.31.1-10.27.42V247.17a82.85,82.85,0,0,0,10.27.85H667v-8.48a54.26,54.26,0,0,0-1-9.22h15.68a86.69,86.69,0,0,0-1,9.22V248h24.69a83.13,83.13,0,0,0,10.38-.74v13.88c-3.28-.22-7.41-.32-10.28-.32ZM702.4,270c5.4,6.78,13.88,20.13,18.11,27.87L708,304.6c-4.55-9.11-12.08-21.94-17.16-28.4Zm-6-35.5a12.24,12.24,0,1,1,12.29,12.29A12.21,12.21,0,0,1,696.36,234.45Zm6.46,0a5.78,5.78,0,1,0,11.55,0,5.78,5.78,0,0,0-11.55,0Z"/><path class="cls-3" d="M732.71,264.86c3.81.32,11.55.64,17.06.64h56.89c4.88,0,9.65-.42,12.4-.64V281.5c-2.54-.11-7.95-.53-12.4-.53H749.77c-6,0-13.14.21-17.06.53Z"/><path class="cls-3" d="M894.08,289.55c-10.91-5.72-26.8-11.87-38.25-15.79v30c0,3.07.53,10.49,1,14.73H840.26a114.51,114.51,0,0,0,1.06-14.73V242.93a74.11,74.11,0,0,0-1.06-12.82h16.53a113.71,113.71,0,0,0-1,12.82v15.58c14.2,4.13,34.55,11.65,44.29,16.42Z"/><path class="cls-3" d="M995.7,261.68a80.69,80.69,0,0,0,9.64-.63v13.77c-2.65-.21-6.67-.31-9.64-.31H970.17c-.64,10.91-3,19.81-6.78,27.23s-11.87,15.57-21.3,20.34l-12.4-9a43.3,43.3,0,0,0,19.18-15.15c4.34-6.57,6.14-14.51,6.57-23.41H926.3c-3.07,0-7.2.21-10.17.42V261.05a81.44,81.44,0,0,0,10.17.63Zm-55.94-14.4c-3.6,0-8.16.1-11.34.31V233.92a79.3,79.3,0,0,0,11.34.85H974.4a83.12,83.12,0,0,0,11.45-.85v13.67c-3.6-.21-7.74-.31-11.45-.31Zm52.34-2.44a145.87,145.87,0,0,0-8.37-14.73l8.48-3.5c2.64,3.92,6.35,10.6,8.37,14.52Zm12.71-4.88a124.65,124.65,0,0,0-8.47-14.62l8.37-3.49a140.66,140.66,0,0,1,8.47,14.41Z"/><path class="cls-3" d="M1095.41,242.08a50.85,50.85,0,0,0-3.7,6.57,156.16,156.16,0,0,1-16.64,29.14,298.33,298.33,0,0,1,29.56,30.3l-12.08,10.49c-6.88-9.53-16.74-20.34-26.7-30-11.23,11.87-25.32,22.88-39.84,29.77l-10.91-11.44c17.06-6.46,33.48-19.29,43.44-30.41,7-7.95,13.46-18.44,15.79-26h-35.92c-4.45,0-10.28.64-12.5.74v-15a119.33,119.33,0,0,0,12.5.74h37.3a38.32,38.32,0,0,0,11-1.38Z"/><path class="cls-3" d="M1200,248a42.15,42.15,0,0,0-3.5,7.63A110.52,110.52,0,0,1,1178.07,291c-10.07,12.3-22.89,21.94-42.81,29.88l-12.5-11.23c21.72-6.46,33.48-15.68,42.7-26.17,7.2-8.26,13.35-21,15-28.92h-29.77a121.07,121.07,0,0,1-26.7,25.64l-11.87-8.8a93.29,93.29,0,0,0,33.06-34.11,50.89,50.89,0,0,0,4.77-11.13l15.47,5.09c-2.55,3.7-5.19,8.47-6.47,10.8l-.31.53H1180a34,34,0,0,0,9.22-1.27Z"/></g></svg>