<?xml version="1.0" encoding="utf-8"?>
<!-- Generator: Adobe Illustrator 23.0.4, SVG Export Plug-In . SVG Version: 6.00 Build 0)  -->
<svg version="1.1" id="Search_1_" xmlns="http://www.w3.org/2000/svg" xmlns:xlink="http://www.w3.org/1999/xlink" x="0px" y="0px"
	 viewBox="0 0 15.98 15.98" style="enable-background:new 0 0 15.98 15.98;" xml:space="preserve">
<style type="text/css">
	.st0{fill:#4B8AC9;}
</style>
<path id="Search" class="st0" d="M2,7C1.97,4.27,4.17,2.03,6.9,2C6.93,2,6.97,2,7,2c2.73-0.03,4.97,2.17,5,4.9c0,0.03,0,0.07,0,0.1
	c0.03,2.73-2.17,4.97-4.9,5c-0.03,0-0.07,0-0.1,0c-2.73,0.03-4.97-2.17-5-4.9C2,7.07,2,7.03,2,7z M14.3,15.7
	c0.39,0.38,1.02,0.38,1.4-0.01c0.38-0.38,0.38-1,0-1.39l-3.1-3.1C13.52,9.99,14.01,8.52,14,7c0.02-3.84-3.07-6.98-6.91-7
	C7.06,0,7.03,0,7,0C3.16-0.02,0.02,3.07,0,6.91C0,6.94,0,6.97,0,7c-0.02,3.84,3.07,6.98,6.91,7c0.03,0,0.06,0,0.09,0
	c1.52,0.01,2.99-0.48,4.2-1.4L14.3,15.7z"/>
</svg>
