<svg id="COS_Immigration_Logo" data-name="COS Immigration Logo" xmlns="http://www.w3.org/2000/svg" viewBox="0 0 1199.04 212.28"><defs><style>.cls-1{fill:#4252a4;}.cls-2{fill:#1b1b1b;}</style></defs><title>COSImmigrationLogo</title><g id="COS_Logo_English_" data-name="COS Logo (English)"><path class="cls-1" d="M441.34,181.23l24-27.2a36.81,36.81,0,0,0,14.6,17.6,41.05,41.05,0,0,0,22.6,6.43q15.15,0,24-7.19t8.81-19.32q0-14.36-29.35-28.57-9.49-4.56-15-7.46-26.47-13.8-36.66-27T444.1,57.15q0-25,19.77-41.07T515.19,0q18.34,0,31.63,6.42T570.31,26.5L544.82,50.93a31,31,0,0,0-12.06-13.17q-7.5-4.36-18.12-4.35-12.81,0-20.67,6.41a20.5,20.5,0,0,0-7.85,16.64q0,16,31.15,29.25c4.13,1.76,7.29,3.13,9.5,4.15q25.63,11.73,38,26.49A51.13,51.13,0,0,1,577.07,150q0,28.43-19.37,45.33t-52,16.91q-23.15,0-39.68-8T441.34,181.23Z"/><path class="cls-1" d="M417.91,106.27a105.44,105.44,0,0,1-8.05,41,100.54,100.54,0,0,1-23.22,34,111.69,111.69,0,0,1-35.41,23.05,107.67,107.67,0,0,1-77,1.72,111.53,111.53,0,0,1-32.44-18,102.63,102.63,0,0,1-39.28-81.72,105,105,0,0,1,8-40.92,101.17,101.17,0,0,1,23.43-34,110.52,110.52,0,0,1,76.48-31,107.5,107.5,0,0,1,41,8.13,110.72,110.72,0,0,1,35.21,22.92,102,102,0,0,1,23.28,34.09A105.17,105.17,0,0,1,417.91,106.27Zm-107.46,67.5q27.41,0,45.26-19.25t17.84-48.25q0-28.69-18.05-48.3T310.45,38.38Q283,38.38,265,57.9t-18,48.37q0,29.28,17.78,48.39T310.45,173.77Z"/><path class="cls-1" d="M171.27,57.42a90.68,90.68,0,0,0-26.86-17.19,79.54,79.54,0,0,0-29.49-5.45q-32.25,0-51.4,19.32T44.37,106q0,31.87,17.78,50.58t48.5,18.7a88.34,88.34,0,0,0,32.51-5.86A88.88,88.88,0,0,0,171,151.82l-.29,44.32a113.25,113.25,0,0,1-28.86,12.13,122.36,122.36,0,0,1-31.76,4q-48.23,0-79.16-30T0,106Q0,59.9,31,30T110.92,0a143.55,143.55,0,0,1,31.69,3.45,140.21,140.21,0,0,1,30.18,10.63Z"/><path class="cls-2" d="M641.73,92.39H627V21.52h14.72Z"/><path class="cls-2" d="M722.47,40.18a15.27,15.27,0,0,1,6.11,4.71,15.08,15.08,0,0,1,3,6.73,46.54,46.54,0,0,1,.48,7.74l-.1,33h-14V59a11,11,0,0,0-1-4.9c-1.21-2.44-3.46-3.65-6.73-3.65q-5.67,0-7.83,4.71a14.73,14.73,0,0,0-1.11,6v31.2h-13.8V61.19a17.55,17.55,0,0,0-1-6.78q-1.72-3.79-6.78-3.8c-3.91,0-6.53,1.27-7.88,3.8a14.59,14.59,0,0,0-1.1,6.44V92.39h-13.9V40.08h13.32v7.65A21.87,21.87,0,0,1,675,41.91q4-3.07,10.33-3.08,6,0,9.71,2.65a15.28,15.28,0,0,1,4.52,6.29A17.56,17.56,0,0,1,706.22,41a20.45,20.45,0,0,1,9.43-2.16A18.18,18.18,0,0,1,722.47,40.18Z"/><path class="cls-2" d="M811.89,40.18a15.24,15.24,0,0,1,6.1,4.71,15,15,0,0,1,3,6.73,46.54,46.54,0,0,1,.48,7.74l-.09,33h-14V59a11,11,0,0,0-1-4.9c-1.22-2.44-3.46-3.65-6.73-3.65q-5.67,0-7.84,4.71a14.9,14.9,0,0,0-1.1,6v31.2h-13.8V61.19a17.55,17.55,0,0,0-1-6.78q-1.74-3.79-6.78-3.8-5.86,0-7.88,3.8a14.57,14.57,0,0,0-1.11,6.44V92.39H746.27V40.08h13.31v7.65a21.87,21.87,0,0,1,4.81-5.82,16.47,16.47,0,0,1,10.34-3.08q6,0,9.71,2.65A15.46,15.46,0,0,1,789,47.77,17.49,17.49,0,0,1,795.64,41a20.41,20.41,0,0,1,9.42-2.16A18.23,18.23,0,0,1,811.89,40.18Z"/><path class="cls-2" d="M849.82,33.74H835.93V21.09h13.89ZM835.93,40h13.89v52.4H835.93Z"/><path class="cls-2" d="M891.17,39.94a16.46,16.46,0,0,1,8.06,7.59V40H912.6v49.7q0,10.16-3.42,15.29-5.86,8.85-22.49,8.85-10.05,0-16.4-3.94a14.56,14.56,0,0,1-7-11.78h14.91a6.19,6.19,0,0,0,1.87,3.46q2.22,1.88,7.45,1.87,7.41,0,9.91-5Q899,95.32,899,87.82V84.45a16.51,16.51,0,0,1-4.23,5c-2.72,2.09-6.27,3.13-10.62,3.13q-10.1,0-16.13-7.09t-6-19.21q0-11.69,5.81-19.64t16.47-7.95A18.06,18.06,0,0,1,891.17,39.94Zm4.66,37.57q3.31-3.63,3.31-11.56,0-7.46-3.14-11.35a10.22,10.22,0,0,0-8.4-3.89q-7.19,0-9.91,6.77a24.11,24.11,0,0,0-1.44,8.9,20.38,20.38,0,0,0,1.53,8.12,10,10,0,0,0,10,6.64A10.52,10.52,0,0,0,895.83,77.51Z"/><path class="cls-2" d="M956.31,38.76l1.17.07v14c-.86-.1-1.63-.16-2.3-.19s-1.22,0-1.64,0q-8.26,0-11.1,5.38-1.59,3-1.59,9.33v25h-13.8V40h13.08v9.13A28.85,28.85,0,0,1,945.66,42a15,15,0,0,1,10-3.22A6.33,6.33,0,0,1,956.31,38.76Z"/><path class="cls-2" d="M988.61,60.51a21.71,21.71,0,0,0,5.47-1.2q3-1.25,3-3.89,0-3.22-2.27-4.45a14.28,14.28,0,0,0-6.65-1.23c-3.28,0-5.61.81-7,2.41A9.9,9.9,0,0,0,979.2,57H966a20.09,20.09,0,0,1,3.86-11.3q5.46-6.93,18.74-6.92a33.35,33.35,0,0,1,15.35,3.41q6.71,3.41,6.71,12.88v24q0,2.5.1,6.06a7.66,7.66,0,0,0,.81,3.65,5,5,0,0,0,2,1.59v2h-14.9a14.36,14.36,0,0,1-.86-3c-.17-.93-.29-2-.39-3.18a28.08,28.08,0,0,1-6.58,5.24A19.84,19.84,0,0,1,980.79,94,17.35,17.35,0,0,1,969,90q-4.66-4.06-4.66-11.52,0-9.66,7.5-14,4.13-2.35,12.11-3.37Zm8.38,6.4a16,16,0,0,1-2.66,1.32,22.13,22.13,0,0,1-3.68.94l-3.12.57a20.7,20.7,0,0,0-6.3,1.88A6.27,6.27,0,0,0,978,77.44q0,3.51,2,5.07a7.5,7.5,0,0,0,4.8,1.56,14.33,14.33,0,0,0,8.28-2.6Q996.84,78.88,997,72Z"/><path class="cls-2" d="M1019.4,50.23V40.47h7.31V25.85h13.56V40.47h8.51v9.76h-8.51V77.92c0,2.14.27,3.48.81,4s2.22.79,5,.79c.42,0,.86,0,1.33,0l1.37-.07V92.87l-6.49.24q-9.72.33-13.27-3.37-2.31-2.35-2.31-7.26V50.23Z"/><path class="cls-2" d="M1074.24,33.74h-13.89V21.09h13.89ZM1060.35,40h13.89v52.4h-13.89Z"/><path class="cls-2" d="M1133.21,86q-6.64,8.19-20.15,8.19T1092.92,86a30.36,30.36,0,0,1-6.63-19.72,30.55,30.55,0,0,1,6.63-19.65q6.63-8.31,20.14-8.31t20.15,8.31a30.55,30.55,0,0,1,6.63,19.65A30.36,30.36,0,0,1,1133.21,86Zm-11-7.58q3.23-4.26,3.23-12.14t-3.23-12.12Q1119,49.9,1113,49.89a11,11,0,0,0-9.25,4.25q-3.24,4.24-3.24,12.12t3.24,12.14a10.93,10.93,0,0,0,9.25,4.28Q1119,82.68,1122.24,78.4Z"/><path class="cls-2" d="M1193.89,43Q1199,47.25,1199,57.1V92.39h-14V60.51a14.64,14.64,0,0,0-1.1-6.34c-1.33-2.69-3.88-4-7.63-4q-6.93,0-9.5,5.91a20.5,20.5,0,0,0-1.34,8V92.39h-13.7V40.08H1165v7.65a23.18,23.18,0,0,1,5-5.82,17.23,17.23,0,0,1,10.68-3.17Q1188.74,38.74,1193.89,43Z"/><path class="cls-2" d="M635,127.38q8.55-8.75,21.78-8.75,17.68,0,25.87,11.73a25.6,25.6,0,0,1,4.85,13.22h-14.8a20.41,20.41,0,0,0-3.63-7.69q-4-4.6-11.73-4.61a14.46,14.46,0,0,0-12.48,6.51q-4.58,6.53-4.57,18.44t4.82,17.86A15.1,15.1,0,0,0,657.35,180q7.62,0,11.62-5.1a22.6,22.6,0,0,0,3.67-8.22h14.71a31.91,31.91,0,0,1-9.73,18.84q-7.82,7.26-20,7.26-15.14,0-23.79-9.8t-8.65-27Q625.14,137.44,635,127.38Z"/><path class="cls-2" d="M744.06,184.43q-6.64,8.19-20.15,8.19t-20.14-8.19a32.52,32.52,0,0,1,0-39.36q6.63-8.31,20.14-8.31t20.15,8.31a32.52,32.52,0,0,1,0,39.36Zm-11-7.57q3.21-4.28,3.22-12.15c0-5.25-1.08-9.28-3.22-12.12s-5.23-4.25-9.23-4.25-7.1,1.42-9.26,4.25-3.24,6.87-3.24,12.12,1.08,9.3,3.24,12.15,5.25,4.27,9.26,4.27S731,179.71,733.1,176.86Z"/><path class="cls-2" d="M804.74,141.45q5.14,4.25,5.15,14.11v35.28h-14V159a14.54,14.54,0,0,0-1.1-6.35c-1.33-2.69-3.88-4-7.63-4q-6.93,0-9.5,5.92a20.43,20.43,0,0,0-1.34,8v28.36h-13.7v-52.3h13.27v7.64a23.55,23.55,0,0,1,5-5.82,17.3,17.3,0,0,1,10.68-3.17Q799.6,137.19,804.74,141.45Z"/><path class="cls-2" d="M835.09,174.11q.43,3.66,1.89,5.19,2.55,2.74,9.46,2.74a14.49,14.49,0,0,0,6.45-1.2,3.83,3.83,0,0,0,2.39-3.6,3.89,3.89,0,0,0-1.92-3.51q-1.93-1.2-14.33-4.14-8.94-2.21-12.59-5.53c-2.44-2.17-3.65-5.32-3.65-9.42a16.31,16.31,0,0,1,5.71-12.47q5.7-5.22,16.06-5.22,9.83,0,16,3.92t7.11,13.53H854a8.11,8.11,0,0,0-1.5-4.18q-2.26-2.79-7.71-2.79-4.49,0-6.39,1.4a4,4,0,0,0-1.9,3.26,3.58,3.58,0,0,0,2,3.42q2,1.1,14.31,3.8,8.19,1.92,12.27,5.81a13.23,13.23,0,0,1,4,9.86,15.87,15.87,0,0,1-5.81,12.71q-5.79,4.94-17.94,4.93-12.37,0-18.28-5.22a16.94,16.94,0,0,1-5.9-13.29Z"/><path class="cls-2" d="M894.54,138.44V170a16.45,16.45,0,0,0,1.06,6.73q1.86,4,7.31,4,7,0,9.57-5.68a20.67,20.67,0,0,0,1.34-8.12V138.44h13.89v52.4H914.4v-7.4q-.2.24-1,1.44a9.76,9.76,0,0,1-1.82,2.12,19.11,19.11,0,0,1-6.21,3.94,21.24,21.24,0,0,1-7,1.06q-11.61,0-15.63-8.37-2.25-4.62-2.25-13.6V138.44Z"/><path class="cls-2" d="M956.34,190.84h-13.7V120h13.7Z"/><path class="cls-2" d="M966.28,148.68v-9.76h7.31V124.31h13.55v14.61h8.51v9.76h-8.51v27.69c0,2.15.28,3.49.82,4s2.21.79,5,.79l1.32,0c.47,0,.92,0,1.37-.07v10.24l-6.49.24q-9.7.34-13.27-3.36-2.29-2.35-2.3-7.26V148.68Z"/><path class="cls-2" d="M1021.12,132.19h-13.9V119.55h13.9Zm-13.9,6.25h13.9v52.4h-13.9Z"/><path class="cls-2" d="M1078.12,141.45q5.14,4.25,5.14,14.11v35.28h-14V159a14.7,14.7,0,0,0-1.09-6.35c-1.34-2.69-3.88-4-7.64-4q-6.91,0-9.49,5.92a20.25,20.25,0,0,0-1.34,8v28.36H1036v-52.3h13.27v7.64a23.33,23.33,0,0,1,5-5.82,17.3,17.3,0,0,1,10.68-3.17Q1073,137.19,1078.12,141.45Z"/><path class="cls-2" d="M1124.08,138.39a16.46,16.46,0,0,1,8.07,7.6v-7.55h13.36v49.71q0,10.14-3.41,15.29-5.86,8.84-22.5,8.84-10,0-16.39-3.94a14.55,14.55,0,0,1-7-11.78h14.9A6.16,6.16,0,0,0,1113,200q2.21,1.88,7.45,1.88,7.39,0,9.9-5,1.64-3.18,1.63-10.68v-3.36a16.63,16.63,0,0,1-4.23,5.05q-4.08,3.12-10.62,3.12-10.1,0-16.13-7.09t-6-19.2q0-11.68,5.81-19.64t16.47-8A18,18,0,0,1,1124.08,138.39Zm4.67,37.57q3.3-3.63,3.3-11.56,0-7.46-3.14-11.34a10.22,10.22,0,0,0-8.4-3.9q-7.17,0-9.91,6.78a24.28,24.28,0,0,0-1.43,8.89,20.4,20.4,0,0,0,1.53,8.13,10,10,0,0,0,10,6.63A10.53,10.53,0,0,0,1128.75,176Z"/></g></svg>