<?xml version="1.0" encoding="utf-8"?>
<!-- Generator: Adobe Illustrator 22.1.0, SVG Export Plug-In . SVG Version: 6.00 Build 0)  -->
<svg version="1.1" id="Frog_Logo" xmlns="http://www.w3.org/2000/svg" xmlns:xlink="http://www.w3.org/1999/xlink" x="0px" y="0px"
	 viewBox="0 0 1200 1375.7" style="enable-background:new 0 0 1200 1375.7;" xml:space="preserve">
<style type="text/css">
	.st0{fill:#6CBC67;}
</style>
<g>
	<path class="st0" d="M1100.1,856.2c11.8,4.7,53.4,21.8,56.4,23.8c3.4,2.3,14.2-1.4,11.2-10.1c-29.8-87.6-100.2-173.5-176.3-221.3
		c-7.6-4.8-13-16.6-1.7-25.6c77.8-61.4,144.2-231.9,160.5-375.3c1.7-15.4-7.1-24.8-16.9-27.5c-118.1-32.8-254.6-54.8-299.5-52.4
		c-10.3,0.5-20.4-5.6-23.7-18.8C789.2,65.6,716,2.5,626,0.1c-107.7-3-197.4,82-200.3,189.7c-0.5,16.5,1.6,32.5,4.7,47.9
		c1.9,9-0.6,21.4-13.3,26.5C175.7,359.6,6.9,631.5,0,887c-0.3,11.5,0.9,24.1,11,29.1c48.4,23.9,106.1,20.2,162.1,7.4
		c45.1-10.4,100-46.3,173.5-122.6c52.5-53.3,120.1-91.6,195.6-107.9c96.6-20.8,197.3,0.1,284,47.3c141.7,77.3,196.1,172.7,260.2,196
		c4.9,1.8,11.9-1.6,10.3-9.8c-1.2-6.3-8.5-60.2-8.4-63.5C1088.5,860.1,1092.6,853.2,1100.1,856.2 M618.1,292.1
		c-53.6-1.4-95.8-46-94.3-99.6c1.4-53.6,46-95.8,99.6-94.4c53.6,1.5,95.8,46.1,94.4,99.6C716.3,251.3,671.7,293.5,618.1,292.1"/>
	<path class="st0" d="M1196.3,969c-3.7-20.2-81.9,31.9-71.8,51c10.1,19,10.3,44,5.3,70.8c-9.7,52-64.9,88.2-66.4,78.7
		c-1.2-8.1,31.4-143.2,12.2-165.1c-8.7-9.9-24.6,0.5-32-7.3c-7.4-7.8-9.1-13.1-22.5-13.9c-6.3-0.3-24.6,7.4-43.8,21.6l0,0l-0.1,0
		c-4.8,3.6-9.6,7.5-14.4,11.8c-7,4.8-15.8,9.5-25.1,10.7c-51.9,7.1-45.7-39-99.7-41.1c-50.9-1.9-76.1,33.7-87.3,60.3
		c-11.2,13.1-27,20.2-44.6,18.4c-27.6-2.9,11.8-59.6-33.9-69.5c-27.4-5.9-39.7,30.2-48.3,37.6c0,0,9.3-35.8-0.9-45.3
		c-10.5-9.8-83.8-9.6-119.9-8.9c1.4-44.5,0.1-84.4,0-106.1c66.7-29.7,149.6-30.8,260.6,60.4c19.5,16.1,81-34.6,72.2-49.8
		c-8.8-15.2-87.3-110.8-248.3-100c-127.5,8.5-233,148-241.9,172.8c-4,11.2,9.2,20.2,18.4,13.7c29.8-21.1,62.1-51.4,99.8-75.6
		c-2.8,23.9-6.7,55.1-11.5,86.6c-43.1,2.4-85,7.6-103.3,17.9c-8.8,4.9,9.2,28.1,17.7,37c3.2,3.5,35.9,4.8,75.2,4.3
		c-7,33.9-15,62.2-23.7,73.4c-16.1,20.7-11.2-0.5-24.2-14.1c-5.3-5.5-49.7-6.7-49.7,8.4c0,20.4,14.3,67,40,77.8
		c78.7,33.2,106.1-54.3,115.3-147.4c24.5-1.3,47.5-3.1,64.3-5.6c-4,54.1-3.6,132-1.2,140.9c3.6,13.8,35.5,35.4,58.7,9.3
		c23.3-26.1,12.6-99.6,26.9-100.1c14.3-0.6-0.9,24.1,34,32.1c26.1,5.9,46.3-10.8,59.9-28.7c-1.3,31.9,3.8,91.6,43.8,104.6
		c51.8,16.7,86.5-22.5,99.1-69.8c9.1-34.5,6.5-46.1,7.1-57c0.6-10.1,6.2,4.7,36.3,1.2l2.3-5.2c-3.1,6.9-5.5,14.1-6.9,21.7
		c-11.7,61.3-4.2,93.2,23.6,107.2c42,21.2,70.6-21.3,70.6-21.3s4.8,22.4-1.3,28c-6.1,5.7-66.5,34.5-95.7,79.4
		c-26.5,40.7-14.6,76.9,23.8,95.6c42.9,20.9,89.4-22.5,99.6-54.4c6.7-21,10.4-98.9,23.1-107.5c12.7-8.6,38.6-11.7,82.7-65.8
		C1201.7,1079.1,1205,1016.6,1196.3,969 M837.6,1094.6c-1.3,7-3.1,13-5.3,18c-2.2,5-4.8,9.1-7.7,12.4c-2.9,3.3-6,4.9-9.1,4.9
		c-3.5,0-6.6-0.8-9.2-2.4c-2.5-1.6-4.6-3.6-6.2-6.2c-1.6-2.6-2.7-5.7-3.4-9.2c-0.8-3.5-1.1-7.2-1.1-11.2c0-7.9,0.7-14.9,2.2-21.2
		c1.5-6.2,3.5-11.9,6-17.1c2.6-5.2,5.5-9.4,8.9-12.7c3.4-3.3,7-5,10.7-5c2.9,0,5.3,0.8,7.3,2.4c2,1.6,3.7,3.8,5,6.6
		c1.3,2.8,2.2,6,2.9,9.7c0.6,3.8,1,7.8,1,12.2C839.6,1081.3,839,1087.6,837.6,1094.6 M984.6,1316.1c-9-7.9-8.7-19.6-5.1-30.4
		c4.4-12.9,30-38.5,37.7-44.2C1017,1243.1,1003.3,1332.6,984.6,1316.1 M1022.3,1104.4c-7,17.8-27.3,21.9-33.4,17.8
		c-13.2-9-11.6-26.7-6.3-39.5c14-34,34.7-44.3,47.2-44.3C1033.8,1062.9,1025.3,1096.8,1022.3,1104.4"/>
</g>
</svg>
