<?xml version="1.0" encoding="utf-8"?>
<!-- Generator: Adobe Illustrator 22.1.0, SVG Export Plug-In . SVG Version: 6.00 Build 0)  -->
<svg version="1.1" xmlns="http://www.w3.org/2000/svg" xmlns:xlink="http://www.w3.org/1999/xlink" x="0px" y="0px"
	 viewBox="0 0 1600 1600" style="enable-background:new 0 0 1600 1600;" xml:space="preserve">
<style type="text/css">
	.st0{display:none;}
	.st1{display:inline;}
	.st2{fill:#51BAEA;}
</style>
<g id="Nanny_From_Japan_Logo__x28_B_x26_W_x29_" class="st0">
	<g class="st1">
		<g>
			<path d="M382.3,987.8c0-12.7-0.1-24.4-0.3-35c-0.2-10.6-0.4-19.9-0.6-27.8c-0.2-7.9-0.4-14.1-0.6-18.7s-0.3-7.3-0.3-8.2
				c-2.8-2-6-3-9.5-3.1c-3.6-0.1-7.1-0.2-10.6-0.2c-4.9,0-10.8,1.2-17.6,3.5c-6.8,2.3-13.5,5.6-19.9,9.8
				c-6.4,4.3-11.9,9.5-16.3,15.7c-4.5,6.2-6.7,13.2-6.7,20.8c0,4.5,0.6,8,1.8,10.7c1.2,2.7,2.6,4.6,4.2,6c1.6,1.3,3.2,2.2,4.8,2.5
				c1.6,0.4,2.8,0.5,3.5,0.5c3.5,0,6.4-0.6,8.6-1.8c2.2-1.2,4.3-2.4,6.1-3.8c1.8-1.3,3.5-2.6,5.1-3.8c1.6-1.2,3.5-1.8,5.6-1.8
				c1.7,0,3.5,0.4,5.3,1.2c1.9,0.8,3.6,2,5.2,3.7c1.6,1.7,3,3.9,4.1,6.6c1.1,2.7,1.7,6,1.7,9.9c0,5.6-1.1,10.4-3.2,14.5
				c-2.2,4.1-5,7.4-8.4,10.2c-3.4,2.7-7.3,4.7-11.7,6.1c-4.4,1.3-8.8,2-13.1,2c-6.7,0-12.7-1.2-18.1-3.5c-5.4-2.3-9.9-5.5-13.7-9.5
				c-3.8-4-6.6-8.8-8.6-14.2c-2-5.4-2.9-11.2-2.9-17.4c0-14.5,3-27.2,9.1-38c6.1-10.8,14.2-19.9,24.3-27.1
				c10.1-7.3,21.8-12.7,35-16.2c13.2-3.6,26.8-5.3,41-5.3c12.7,0,23.2,0.8,31.4,2.5c8.2,1.7,14.9,3.9,20.1,6.7
				c5.2,2.8,9.2,6.1,12.1,9.9c2.9,3.8,5.4,7.9,7.5,12c8.5,17.3,16.8,34.4,24.8,51.1c8,16.8,15.8,33.1,23.3,49
				c7.5,15.9,14.7,31.2,21.8,46c7,14.7,13.9,28.7,20.6,41.8v-30v-64.7c0-11.6,0.3-22.9,0.9-34c0.6-11.1,2-21.6,4-31.4
				c2-9.8,5.1-18.9,9.1-27.1c4-8.2,9.5-15.4,16.2-21.4c6.8-6,15.2-10.7,25.2-14c10.1-3.4,22.1-5,36.2-5c7.1,0,13.7,0.5,19.7,1.6
				c6,1,11.2,2.5,15.6,4.5c4.4,2,7.9,4.4,10.4,7.2c2.5,2.9,3.8,6,3.8,9.5c0,2.2-0.3,4.6-0.9,7c-0.6,2.4-1.6,4.6-2.8,6.6
				c-1.3,2-2.8,3.6-4.7,4.9c-1.9,1.3-4.1,2-6.6,2c-2.1,0-4-1.5-5.8-4.4c-1.7-2.9-3.9-6.2-6.5-9.7c-2.6-3.6-6-6.8-10.3-9.7
				c-4.3-2.9-10-4.4-17.3-4.4c-11.3,0-20.7,2-28.2,6c-7.5,4-13.5,9.6-18.1,16.9c-4.6,7.3-8,16.1-10.2,26.5
				c-2.2,10.4-3.5,22-4.1,34.7c-0.3,8.8-0.5,17.4-0.7,25.7c-0.2,8.3-0.4,16.7-0.4,25.2c-0.1,8.5-0.1,17.4-0.1,26.5
				c0,9.1,0,19,0,29.4c0,14.8,0.1,28.1,0.2,39.8c0.1,11.7,0.3,21.4,0.6,28.9c6.3,10.8,12.5,20.4,18.6,29
				c6.1,8.6,12.2,15.9,18.1,21.8c5.9,5.9,11.9,10.5,17.9,13.7c6,3.2,12.1,4.8,18.2,4.8c2,0,3.8-0.3,5.7-0.8c1.8-0.6,3.4-1.2,4.8-1.9
				c1.5-0.7,3.1-1.6,4.6-2.7l6.7,8.2c-2,1.4-4.7,3.1-8.3,5c-3.6,2-7.9,3.8-13,5.7c-5.1,1.8-10.9,3.4-17.5,4.6
				c-6.6,1.3-13.8,1.9-21.6,1.9c-11.3,0-22.2-2.8-32.6-8.3c-10.4-5.5-20.4-13.1-30.1-22.7c-9.6-9.6-18.9-20.9-27.6-33.8
				c-8.8-12.9-17.3-26.8-25.4-41.6c-8.2-14.8-16-30.2-23.6-46.3c-7.5-16.1-14.8-31.9-21.9-47.7c-7.1-15.7-13.8-30.9-20.3-45.7
				c-6.5-14.7-12.8-28.2-19-40.5c0,8.1,0.1,16.5,0.2,25.1c0.1,8.7,0.2,17.4,0.2,26.2v64.9c0,11.6-0.3,22.9-0.8,33.9
				c-0.6,11-1.9,21.5-4,31.3s-5.1,18.9-9.1,27.2c-4,8.3-9.4,15.5-16.2,21.5c-6.8,6-15.3,10.7-25.3,14s-22.1,5-36.2,5
				c-7.1,0-13.7-0.5-19.7-1.6c-6-1-11.2-2.5-15.6-4.5c-4.4-2-7.8-4.3-10.3-7.1c-2.4-2.8-3.7-6-3.7-9.6c0-2.2,0.3-4.6,0.9-7
				c0.6-2.4,1.6-4.6,2.8-6.6c1.3-2,2.8-3.6,4.6-4.9c1.8-1.3,4-2,6.5-2c1.4,0,2.7,0.7,3.9,2.1c1.2,1.4,2.4,3.1,3.8,5.2
				c1.3,2.1,2.9,4.4,4.6,6.8c1.7,2.4,3.8,4.7,6.3,6.8c2.4,2.1,5.4,3.8,8.9,5.2c3.5,1.4,7.7,2.1,12.6,2.1c11.3,0,20.7-2,28.2-6
				c7.5-4,13.5-9.6,18.1-17c4.6-7.3,8-16.2,10.1-26.5c2.1-10.3,3.4-21.9,4-34.8c0.4-8.8,0.7-17.3,0.8-25.6
				c0.1-8.2,0.3-16.6,0.4-25.1c0.1-8.5,0.2-17.4,0.2-26.6C382.3,1008.2,382.3,998.3,382.3,987.8z"/>
			<path d="M1234.7,1045H1152v116.7c0,10.8-2.8,18.6-8.5,23.5c-5.7,4.9-14.3,7.3-25.9,7.3c-11.7,0-20.4-2.4-26-7.3
				c-5.6-4.9-8.4-12.7-8.4-23.5V1045h-32.7v-18.4h32.7V894.8c-4.5,0.4-9.6,1.2-15.4,2.4c-5.8,1.2-11.7,2.9-17.8,5
				c-6.1,2.2-12,4.7-17.9,7.6s-11.1,6.4-15.7,10.3c-4.6,3.9-8.3,8.3-11.2,13.1c-2.9,4.8-4.3,10-4.3,15.6c0,4.5,0.6,8,1.8,10.7
				c1.2,2.7,2.5,4.6,4.1,6c1.5,1.3,3.1,2.2,4.7,2.5c1.6,0.4,2.8,0.5,3.5,0.5c3.5,0,6.4-0.6,8.6-1.8c2.2-1.2,4.3-2.4,6.1-3.8
				c1.8-1.3,3.5-2.6,5.1-3.8c1.6-1.2,3.5-1.8,5.6-1.8c1.7,0,3.5,0.4,5.3,1.2c1.9,0.8,3.6,2,5.2,3.7c1.6,1.7,3,3.9,4.1,6.6
				c1.1,2.7,1.7,6,1.7,9.9c0,5.6-1.1,10.4-3.2,14.6c-2.2,4.1-5,7.5-8.4,10.2c-3.4,2.7-7.3,4.6-11.7,6c-4.4,1.3-8.8,2-13.1,2
				c-6.7,0-12.7-1.2-18.1-3.5c-5.4-2.3-9.9-5.5-13.7-9.5c-3.8-4-6.6-8.8-8.6-14.1c-2-5.4-2.9-11.2-2.9-17.5
				c0-16.3,4.5-30.2,13.5-41.7c9-11.4,21.3-20.8,37-28.2c15.6-7.3,33.9-12.7,54.7-16c20.8-3.4,43.1-5,66.8-5
				c9.6,0,19.7,0.1,30.2,0.3s20.4,0.5,29.6,0.9c9.3,0.4,17.5,0.9,24.6,1.5c7.1,0.6,12.1,1.2,15.1,1.9c2.8,0.7,5,1.5,6.7,2.3
				c1.7,0.8,2.9,1.8,3.8,2.9c0.8,1.1,1.4,2.4,1.7,3.9c0.3,1.5,0.4,3.2,0.4,5.1c0,1.7-0.2,3.5-0.6,5.6c-0.4,2-1,3.9-1.9,5.7
				c-0.8,1.7-1.9,3.2-3.1,4.5c-1.3,1.3-2.8,1.9-4.6,1.9c-1.1,0-2.3-0.5-3.7-1.5c-1.3-1-3.2-2.2-5.7-3.8c-2.4-1.5-5.7-3.1-9.8-4.8
				c-4.1-1.7-9.6-3.3-16.5-4.8c-6.9-1.5-15.5-2.8-25.8-3.8c-10.3-1-22.7-1.5-37.2-1.5v134.3h82.7V1045z"/>
		</g>
		<path d="M765.6,791.1l0,171.3h0v290.4c0,18.2-1.9,35-5.7,50.3c-3.8,15.3-9.6,28.5-17.4,39.6c-7.8,11.1-17.8,19.7-29.8,25.7
			c-12.1,6.1-26.4,9.1-43.2,9.1c-8.5,0-15.5-1.2-21.2-3.6c-5.7-2.4-10.5-5.4-14.5-9c-4-3.6-7.3-7.4-9.8-11.6
			c-2.5-4.1-4.7-8-6.7-11.6c-2-3.6-3.9-6.6-5.7-9c-1.8-2.4-4-3.6-6.4-3.6c-3.9,0-7.4,1.1-10.6,3.3c-3.1,2.2-5.8,4.9-8,8.1
			c-2.2,3.3-3.8,6.9-4.9,10.9c-1.1,4-1.6,8-1.6,11.9c0,5.2,2.3,10,7,14.5c4.7,4.4,10.9,8.3,18.7,11.6c7.8,3.3,16.8,5.8,27,7.7
			c10.2,1.8,20.9,2.8,31.9,2.8c28.9,0,63.5-7.2,85.9-21c34.8-21.2,42.3-32.7,55.4-51.5c8.4-12,28-46.1,28-103.5V962.4V840.9l0-49.8
			H765.6z"/>
		<g>
			<polygon points="794.3,304.9 773.2,395.5 786.7,395.5 			"/>
			<polygon points="683.4,781.5 754.7,781.5 786,405.1 771,405.1 			"/>
			<polygon points="521.9,781.5 592.2,781.5 744,405.1 729.2,405.1 			"/>
			<polygon points="784.4,304.9 734.5,395.5 747.8,395.5 			"/>
			<polygon points="441.4,781.5 510.8,781.5 723,405.1 708.4,405.1 			"/>
			<polygon points="779.4,304.9 715.1,395.5 728.3,395.5 			"/>
			<polygon points="602.6,781.5 673.5,781.5 765,405.1 750.1,405.1 			"/>
			<polygon points="789.3,304.9 753.8,395.5 767.3,395.5 			"/>
			<polygon points="764.5,304.9 657.2,395.5 669.8,395.5 			"/>
			<polygon points="200,781.5 266.9,781.5 266.6,781.2 659.8,405.1 645.9,405.1 			"/>
			<polygon points="280.4,781.5 347.8,781.5 680.9,405.1 666.7,405.1 			"/>
			<polygon points="769.5,304.9 676.5,395.5 689.3,395.5 			"/>
			<polygon points="774.4,304.9 695.8,395.5 708.8,395.5 			"/>
			<polygon points="360.9,781.5 429.4,781.5 701.9,405.1 687.5,405.1 			"/>
			<polygon points="833.9,304.9 929,395.5 941.6,395.5 			"/>
			<polygon points="1400,781.5 952.9,405.1 939,405.1 1333.4,781.2 1333.1,781.5 			"/>
			<polygon points="824,304.9 889.9,395.5 903,395.5 			"/>
			<polygon points="1170.6,781.5 1239.1,781.5 911.3,405.1 896.9,405.1 			"/>
			<polygon points="819.1,304.9 870.4,395.5 883.6,395.5 			"/>
			<polygon points="1089.2,781.5 1158.6,781.5 890.4,405.1 875.8,405.1 			"/>
			<polygon points="829,304.9 909.5,395.5 922.3,395.5 			"/>
			<polygon points="1252.2,781.5 1319.6,781.5 932.1,405.1 917.9,405.1 			"/>
			<polygon points="926.5,781.5 997.4,781.5 848.7,405.1 833.8,405.1 			"/>
			<polygon points="809.1,304.9 831.5,395.5 844.9,395.5 			"/>
			<polygon points="1007.8,781.5 1078.1,781.5 869.6,405.1 854.8,405.1 			"/>
			<polygon points="814.1,304.9 850.9,395.5 864.3,395.5 			"/>
			<polygon points="845.3,781.5 916.6,781.5 827.8,405.1 812.8,405.1 			"/>
			<polygon points="804.2,304.9 812,395.5 825.6,395.5 			"/>
			<polygon points="764.3,781.5 835.7,781.5 806.9,405.1 791.9,405.1 			"/>
			<polygon points="799.2,304.9 792.6,395.5 806.2,395.5 			"/>
		</g>
		<polygon points="782.6,200 815.9,200 833.9,295.3 764.5,295.3 		"/>
	</g>
</g>
<g id="Nanny_From_Japan_Logo">
	<g>
		<g>
			<path class="st2" d="M382.3,987.8c0-12.7-0.1-24.4-0.3-35c-0.2-10.6-0.4-19.9-0.6-27.8c-0.2-7.9-0.4-14.1-0.6-18.7
				s-0.3-7.3-0.3-8.2c-2.8-2-6-3-9.5-3.1c-3.6-0.1-7.1-0.2-10.6-0.2c-4.9,0-10.8,1.2-17.6,3.5c-6.8,2.3-13.5,5.6-19.9,9.8
				c-6.4,4.3-11.9,9.5-16.3,15.7c-4.5,6.2-6.7,13.2-6.7,20.8c0,4.5,0.6,8,1.8,10.7c1.2,2.7,2.6,4.6,4.2,6c1.6,1.3,3.2,2.2,4.8,2.5
				c1.6,0.4,2.8,0.5,3.5,0.5c3.5,0,6.4-0.6,8.6-1.8c2.2-1.2,4.3-2.4,6.1-3.8c1.8-1.3,3.5-2.6,5.1-3.8c1.6-1.2,3.5-1.8,5.6-1.8
				c1.7,0,3.5,0.4,5.3,1.2c1.9,0.8,3.6,2,5.2,3.7c1.6,1.7,3,3.9,4.1,6.6c1.1,2.7,1.7,6,1.7,9.9c0,5.6-1.1,10.4-3.2,14.5
				c-2.2,4.1-5,7.4-8.4,10.2c-3.4,2.7-7.3,4.7-11.7,6.1c-4.4,1.3-8.8,2-13.1,2c-6.7,0-12.7-1.2-18.1-3.5c-5.4-2.3-9.9-5.5-13.7-9.5
				c-3.8-4-6.6-8.8-8.6-14.2c-2-5.4-2.9-11.2-2.9-17.4c0-14.5,3-27.2,9.1-38c6.1-10.8,14.2-19.9,24.3-27.1
				c10.1-7.3,21.8-12.7,35-16.2c13.2-3.6,26.8-5.3,41-5.3c12.7,0,23.2,0.8,31.4,2.5c8.2,1.7,14.9,3.9,20.1,6.7
				c5.2,2.8,9.2,6.1,12.1,9.9c2.9,3.8,5.4,7.9,7.5,12c8.5,17.3,16.8,34.4,24.8,51.1c8,16.8,15.8,33.1,23.3,49
				c7.5,15.9,14.7,31.2,21.8,46c7,14.7,13.9,28.7,20.6,41.8v-30v-64.7c0-11.6,0.3-22.9,0.9-34c0.6-11.1,2-21.6,4-31.4
				c2-9.8,5.1-18.9,9.1-27.1c4-8.2,9.5-15.4,16.2-21.4c6.8-6,15.2-10.7,25.2-14c10.1-3.4,22.1-5,36.2-5c7.1,0,13.7,0.5,19.7,1.6
				c6,1,11.2,2.5,15.6,4.5c4.4,2,7.9,4.4,10.4,7.2c2.5,2.9,3.8,6,3.8,9.5c0,2.2-0.3,4.6-0.9,7c-0.6,2.4-1.6,4.6-2.8,6.6
				c-1.3,2-2.8,3.6-4.7,4.9c-1.9,1.3-4.1,2-6.6,2c-2.1,0-4-1.5-5.8-4.4c-1.7-2.9-3.9-6.2-6.5-9.7c-2.6-3.6-6-6.8-10.3-9.7
				c-4.3-2.9-10-4.4-17.3-4.4c-11.3,0-20.7,2-28.2,6c-7.5,4-13.5,9.6-18.1,16.9c-4.6,7.3-8,16.1-10.2,26.5
				c-2.2,10.4-3.5,22-4.1,34.7c-0.3,8.8-0.5,17.4-0.7,25.7c-0.2,8.3-0.4,16.7-0.4,25.2c-0.1,8.5-0.1,17.4-0.1,26.5
				c0,9.1,0,19,0,29.4c0,14.8,0.1,28.1,0.2,39.8c0.1,11.7,0.3,21.4,0.6,28.9c6.3,10.8,12.5,20.4,18.6,29
				c6.1,8.6,12.2,15.9,18.1,21.8c5.9,5.9,11.9,10.5,17.9,13.7c6,3.2,12.1,4.8,18.2,4.8c2,0,3.8-0.3,5.7-0.8c1.8-0.6,3.4-1.2,4.8-1.9
				c1.5-0.7,3.1-1.6,4.6-2.7l6.7,8.2c-2,1.4-4.7,3.1-8.3,5c-3.6,2-7.9,3.8-13,5.7c-5.1,1.8-10.9,3.4-17.5,4.6
				c-6.6,1.3-13.8,1.9-21.6,1.9c-11.3,0-22.2-2.8-32.6-8.3c-10.4-5.5-20.4-13.1-30.1-22.7c-9.6-9.6-18.9-20.9-27.6-33.8
				c-8.8-12.9-17.3-26.8-25.4-41.6c-8.2-14.8-16-30.2-23.6-46.3c-7.5-16.1-14.8-31.9-21.9-47.7c-7.1-15.7-13.8-30.9-20.3-45.7
				c-6.5-14.7-12.8-28.2-19-40.5c0,8.1,0.1,16.5,0.2,25.1c0.1,8.7,0.2,17.4,0.2,26.2v64.9c0,11.6-0.3,22.9-0.8,33.9
				c-0.6,11-1.9,21.5-4,31.3s-5.1,18.9-9.1,27.2c-4,8.3-9.4,15.5-16.2,21.5c-6.8,6-15.3,10.7-25.3,14s-22.1,5-36.2,5
				c-7.1,0-13.7-0.5-19.7-1.6c-6-1-11.2-2.5-15.6-4.5c-4.4-2-7.8-4.3-10.3-7.1c-2.4-2.8-3.7-6-3.7-9.6c0-2.2,0.3-4.6,0.9-7
				c0.6-2.4,1.6-4.6,2.8-6.6c1.3-2,2.8-3.6,4.6-4.9c1.8-1.3,4-2,6.5-2c1.4,0,2.7,0.7,3.9,2.1c1.2,1.4,2.4,3.1,3.8,5.2
				c1.3,2.1,2.9,4.4,4.6,6.8c1.7,2.4,3.8,4.7,6.3,6.8c2.4,2.1,5.4,3.8,8.9,5.2c3.5,1.4,7.7,2.1,12.6,2.1c11.3,0,20.7-2,28.2-6
				c7.5-4,13.5-9.6,18.1-17c4.6-7.3,8-16.2,10.1-26.5c2.1-10.3,3.4-21.9,4-34.8c0.4-8.8,0.7-17.3,0.8-25.6
				c0.1-8.2,0.3-16.6,0.4-25.1c0.1-8.5,0.2-17.4,0.2-26.6C382.3,1008.2,382.3,998.3,382.3,987.8z"/>
			<path class="st2" d="M1234.7,1045H1152v116.7c0,10.8-2.8,18.6-8.5,23.5c-5.7,4.9-14.3,7.3-25.9,7.3c-11.7,0-20.4-2.4-26-7.3
				c-5.6-4.9-8.4-12.7-8.4-23.5V1045h-32.7v-18.4h32.7V894.8c-4.5,0.4-9.6,1.2-15.4,2.4c-5.8,1.2-11.7,2.9-17.8,5
				c-6.1,2.2-12,4.7-17.9,7.6s-11.1,6.4-15.7,10.3c-4.6,3.9-8.3,8.3-11.2,13.1c-2.9,4.8-4.3,10-4.3,15.6c0,4.5,0.6,8,1.8,10.7
				c1.2,2.7,2.5,4.6,4.1,6c1.5,1.3,3.1,2.2,4.7,2.5c1.6,0.4,2.8,0.5,3.5,0.5c3.5,0,6.4-0.6,8.6-1.8c2.2-1.2,4.3-2.4,6.1-3.8
				c1.8-1.3,3.5-2.6,5.1-3.8c1.6-1.2,3.5-1.8,5.6-1.8c1.7,0,3.5,0.4,5.3,1.2c1.9,0.8,3.6,2,5.2,3.7c1.6,1.7,3,3.9,4.1,6.6
				c1.1,2.7,1.7,6,1.7,9.9c0,5.6-1.1,10.4-3.2,14.6c-2.2,4.1-5,7.5-8.4,10.2c-3.4,2.7-7.3,4.6-11.7,6c-4.4,1.3-8.8,2-13.1,2
				c-6.7,0-12.7-1.2-18.1-3.5c-5.4-2.3-9.9-5.5-13.7-9.5c-3.8-4-6.6-8.8-8.6-14.1c-2-5.4-2.9-11.2-2.9-17.5
				c0-16.3,4.5-30.2,13.5-41.7c9-11.4,21.3-20.8,37-28.2c15.6-7.3,33.9-12.7,54.7-16c20.8-3.4,43.1-5,66.8-5
				c9.6,0,19.7,0.1,30.2,0.3s20.4,0.5,29.6,0.9c9.3,0.4,17.5,0.9,24.6,1.5c7.1,0.6,12.1,1.2,15.1,1.9c2.8,0.7,5,1.5,6.7,2.3
				c1.7,0.8,2.9,1.8,3.8,2.9c0.8,1.1,1.4,2.4,1.7,3.9c0.3,1.5,0.4,3.2,0.4,5.1c0,1.7-0.2,3.5-0.6,5.6c-0.4,2-1,3.9-1.9,5.7
				c-0.8,1.7-1.9,3.2-3.1,4.5c-1.3,1.3-2.8,1.9-4.6,1.9c-1.1,0-2.3-0.5-3.7-1.5c-1.3-1-3.2-2.2-5.7-3.8c-2.4-1.5-5.7-3.1-9.8-4.8
				c-4.1-1.7-9.6-3.3-16.5-4.8c-6.9-1.5-15.5-2.8-25.8-3.8c-10.3-1-22.7-1.5-37.2-1.5v134.3h82.7V1045z"/>
		</g>
		<path class="st2" d="M765.6,791.1l0,171.3h0v290.4c0,18.2-1.9,35-5.7,50.3c-3.8,15.3-9.6,28.5-17.4,39.6
			c-7.8,11.1-17.8,19.7-29.8,25.7c-12.1,6.1-26.4,9.1-43.2,9.1c-8.5,0-15.5-1.2-21.2-3.6c-5.7-2.4-10.5-5.4-14.5-9
			c-4-3.6-7.3-7.4-9.8-11.6c-2.5-4.1-4.7-8-6.7-11.6c-2-3.6-3.9-6.6-5.7-9c-1.8-2.4-4-3.6-6.4-3.6c-3.9,0-7.4,1.1-10.6,3.3
			c-3.1,2.2-5.8,4.9-8,8.1c-2.2,3.3-3.8,6.9-4.9,10.9c-1.1,4-1.6,8-1.6,11.9c0,5.2,2.3,10,7,14.5c4.7,4.4,10.9,8.3,18.7,11.6
			c7.8,3.3,16.8,5.8,27,7.7c10.2,1.8,20.9,2.8,31.9,2.8c28.9,0,63.5-7.2,85.9-21c34.8-21.2,42.3-32.7,55.4-51.5
			c8.4-12,28-46.1,28-103.5V962.4V840.9l0-49.8H765.6z"/>
		<g>
			<polygon class="st2" points="794.3,304.9 773.2,395.5 786.7,395.5 			"/>
			<polygon class="st2" points="683.4,781.5 754.7,781.5 786,405.1 771,405.1 			"/>
			<polygon class="st2" points="521.9,781.5 592.2,781.5 744,405.1 729.2,405.1 			"/>
			<polygon class="st2" points="784.4,304.9 734.5,395.5 747.8,395.5 			"/>
			<polygon class="st2" points="441.4,781.5 510.8,781.5 723,405.1 708.4,405.1 			"/>
			<polygon class="st2" points="779.4,304.9 715.1,395.5 728.3,395.5 			"/>
			<polygon class="st2" points="602.6,781.5 673.5,781.5 765,405.1 750.1,405.1 			"/>
			<polygon class="st2" points="789.3,304.9 753.8,395.5 767.3,395.5 			"/>
			<polygon class="st2" points="764.5,304.9 657.2,395.5 669.8,395.5 			"/>
			<polygon class="st2" points="200,781.5 266.9,781.5 266.6,781.2 659.8,405.1 645.9,405.1 			"/>
			<polygon class="st2" points="280.4,781.5 347.8,781.5 680.9,405.1 666.7,405.1 			"/>
			<polygon class="st2" points="769.5,304.9 676.5,395.5 689.3,395.5 			"/>
			<polygon class="st2" points="774.4,304.9 695.8,395.5 708.8,395.5 			"/>
			<polygon class="st2" points="360.9,781.5 429.4,781.5 701.9,405.1 687.5,405.1 			"/>
			<polygon class="st2" points="833.9,304.9 929,395.5 941.6,395.5 			"/>
			<polygon class="st2" points="1400,781.5 952.9,405.1 939,405.1 1333.4,781.2 1333.1,781.5 			"/>
			<polygon class="st2" points="824,304.9 889.9,395.5 903,395.5 			"/>
			<polygon class="st2" points="1170.6,781.5 1239.1,781.5 911.3,405.1 896.9,405.1 			"/>
			<polygon class="st2" points="819.1,304.9 870.4,395.5 883.6,395.5 			"/>
			<polygon class="st2" points="1089.2,781.5 1158.6,781.5 890.4,405.1 875.8,405.1 			"/>
			<polygon class="st2" points="829,304.9 909.5,395.5 922.3,395.5 			"/>
			<polygon class="st2" points="1252.2,781.5 1319.6,781.5 932.1,405.1 917.9,405.1 			"/>
			<polygon class="st2" points="926.5,781.5 997.4,781.5 848.7,405.1 833.8,405.1 			"/>
			<polygon class="st2" points="809.1,304.9 831.5,395.5 844.9,395.5 			"/>
			<polygon class="st2" points="1007.8,781.5 1078.1,781.5 869.6,405.1 854.8,405.1 			"/>
			<polygon class="st2" points="814.1,304.9 850.9,395.5 864.3,395.5 			"/>
			<polygon class="st2" points="845.3,781.5 916.6,781.5 827.8,405.1 812.8,405.1 			"/>
			<polygon class="st2" points="804.2,304.9 812,395.5 825.6,395.5 			"/>
			<polygon class="st2" points="764.3,781.5 835.7,781.5 806.9,405.1 791.9,405.1 			"/>
			<polygon class="st2" points="799.2,304.9 792.6,395.5 806.2,395.5 			"/>
		</g>
		<polygon class="st2" points="782.6,200 815.9,200 833.9,295.3 764.5,295.3 		"/>
	</g>
</g>
</svg>
